<svg height="512pt" viewBox="0 -2 512 512" width="512pt" xmlns="http://www.w3.org/2000/svg"><path d="m440.066406 406.214844h16.925782v16.925781h-16.925782zm0 0"/><path d="m448.527344 355.4375c-32.664063 0-59.238282 28.089844-59.238282 62.625 0 32.457031 47.78125 81.683594 53.222657 87.191406 1.589843 1.609375 3.757812 2.515625 6.015625 2.515625 2.261718 0 4.425781-.898437 6.019531-2.515625 5.449219-5.5 53.222656-54.734375 53.222656-87.191406 0-34.535156-26.574219-62.625-59.242187-62.625zm25.390625 76.164062c0 4.683594-3.792969 8.464844-8.464844 8.464844h-33.851563c-4.667968 0-8.460937-3.78125-8.460937-8.464844v-33.847656c0-4.683594 3.792969-8.464844 8.460937-8.464844h33.851563c4.671875 0 8.464844 3.78125 8.464844 8.464844zm0 0"/><path d="m50.777344 50.777344h16.925781v16.925781h-16.925781zm0 0"/><path d="m59.238281 152.332031c2.261719 0 4.425781-.898437 6.019531-2.515625 5.449219-5.5 53.222657-54.738281 53.222657-87.191406 0-34.535156-26.574219-62.625-59.242188-62.625-32.664062 0-59.238281 28.089844-59.238281 62.625 0 32.453125 47.78125 81.683594 53.222656 87.191406 1.589844 1.617188 3.757813 2.515625 6.015625 2.515625zm-25.386719-76.167969v-33.851562c0-4.679688 3.792969-8.460938 8.460938-8.460938h33.851562c4.671876 0 8.464844 3.78125 8.464844 8.460938v33.851562c0 4.679688-3.792968 8.464844-8.464844 8.464844h-33.851562c-4.667969 0-8.460938-3.785156-8.460938-8.464844zm0 0"/><path d="m397.753906 490.84375h-291.96875c-16.332031 0-29.621094-13.289062-29.621094-29.621094 0-16.332031 13.289063-29.621094 29.621094-29.621094h203.105469c25.660156 0 46.546875-20.882812 46.546875-46.542968s-20.878906-46.546875-46.546875-46.546875h-262.34375c-16.335937 0-29.621094-13.285157-29.621094-29.621094 0-16.332031 13.285157-29.617187 29.621094-29.617187h418.90625c25.660156 0 46.546875-20.886719 46.546875-46.546876 0-25.660156-20.878906-46.542968-46.546875-46.542968h-308.890625c-16.332031 0-29.621094-13.289063-29.621094-29.621094s13.289063-29.621094 29.621094-29.621094h228.496094c25.660156 0 46.542968-20.886718 46.542968-46.542968 0-25.660157-20.875-46.546876-46.542968-46.546876h-215.800782c-4.671874 0-8.464843 3.78125-8.464843 8.460938s3.792969 8.464844 8.464843 8.464844h215.800782c16.332031 0 29.617187 13.285156 29.617187 29.621094 0 16.332031-13.285156 29.617187-29.617187 29.617187h-228.496094c-25.667969 0-46.546875 20.886719-46.546875 46.546875s20.878906 46.546875 46.546875 46.546875h308.890625c16.335937 0 29.621094 13.285156 29.621094 29.617187 0 16.332032-13.285157 29.621094-29.621094 29.621094h-418.90625c-25.667969 0-46.546875 20.886719-46.546875 46.542969 0 25.660156 20.878906 46.546875 46.546875 46.546875h262.34375c16.335937 0 29.621094 13.289062 29.621094 29.621094 0 16.332031-13.285157 29.617187-29.621094 29.617187h-203.105469c-25.667968 0-46.546875 20.886719-46.546875 46.546875s20.878907 46.546875 46.546875 46.546875h291.96875c4.667969 0 8.460938-3.785156 8.460938-8.464843 0-4.679688-3.792969-8.460938-8.460938-8.460938zm0 0"/></svg>