<?xml version="1.0" encoding="iso-8859-1"?>
<!-- Generator: Adobe Illustrator 19.0.0, SVG Export Plug-In . SVG Version: 6.00 Build 0)  -->
<svg version="1.1" id="Capa_1" xmlns="http://www.w3.org/2000/svg" xmlns:xlink="http://www.w3.org/1999/xlink" x="0px" y="0px"
	 viewBox="0 0 512 512" style="enable-background:new 0 0 512 512;" xml:space="preserve">
<g>
	<g>
		<path d="M69,0v512h19.917l53.309-29.882L199,511.999L256,482l57,29.999l56.774-29.881L423.083,512H443V0H69z M243,345H129v-30h114
			V345z M243,285H129v-30h114V285z M243,225H129v-30h114V225z M383,230h-30v-10c0-13.785-11.215-25-25-25c-13.785,0-25,11.215-25,25
			v10c0,13.785,11.215,25,25,25c30.327,0,55,24.673,55,55v10c0,25.127-16.943,46.356-40,52.904V405h-30v-32.096
			c-23.057-6.547-40-27.777-40-52.904v-10h30v10c0,13.785,11.215,25,25,25c13.785,0,25-11.215,25-25v-10c0-13.785-11.215-25-25-25
			c-30.327,0-55-24.673-55-55v-10c0-25.127,16.943-46.356,40-52.904V135h30v32.096c23.057,6.547,40,27.777,40,52.904V230z M383,105
			H129V75h254V105z"/>
	</g>
</g>
<g>
</g>
<g>
</g>
<g>
</g>
<g>
</g>
<g>
</g>
<g>
</g>
<g>
</g>
<g>
</g>
<g>
</g>
<g>
</g>
<g>
</g>
<g>
</g>
<g>
</g>
<g>
</g>
<g>
</g>
</svg>
